G04 DipTrace 5.0.0.0*
G04 UstundagTopSilk.gbr*
%MOIN*%
G04 #@! TF.FileFunction,Legend,Top*
G04 #@! TF.Part,Single*
%ADD10C,0.004724*%
G04 #@! TA.AperFunction,CopperBalancing*
%ADD58C,0.00772*%
%FSLAX26Y26*%
G04*
G70*
G90*
G75*
G01*
G04 TopSilk*
%LPD*%
X569585Y492864D2*
G54D10*
G03X455411Y492864I-57087J-35987D01*
G01*
X569585Y419636D2*
G02X455411Y419636I-57087J35987D01*
G01*
G36*
X442523Y516383D2*
X442607Y517667D1*
X442858Y518930D1*
X443272Y520149D1*
X443842Y521304D1*
X444557Y522374D1*
X445406Y523342D1*
X446374Y524191D1*
X447444Y524906D1*
X448599Y525476D1*
X449818Y525890D1*
X451081Y526141D1*
X452365Y526225D1*
X453650Y526141D1*
X454913Y525890D1*
X456132Y525476D1*
X457287Y524906D1*
X458357Y524191D1*
X459325Y523342D1*
X460174Y522374D1*
X460889Y521304D1*
X461459Y520149D1*
X461873Y518930D1*
X462124Y517667D1*
X462208Y516383D1*
D1*
X462124Y515098D1*
X461873Y513835D1*
X461459Y512616D1*
X460889Y511461D1*
X460174Y510391D1*
X459325Y509423D1*
X458357Y508574D1*
X457287Y507859D1*
X456132Y507289D1*
X454913Y506875D1*
X453650Y506624D1*
X452365Y506540D1*
X451081Y506624D1*
X449818Y506875D1*
X448599Y507289D1*
X447444Y507859D1*
X446374Y508574D1*
X445406Y509423D1*
X444557Y510391D1*
X443842Y511461D1*
X443272Y512616D1*
X442858Y513835D1*
X442607Y515098D1*
X442523Y516383D1*
D1*
G37*
X-974998Y418747D2*
G54D10*
X-674998Y418753D1*
X-675006Y818753D1*
X-975006Y818747D1*
X-974998Y418747D1*
X-887990Y416780D2*
X-887998Y847095D1*
X-978499Y514898D2*
G02X-978499Y514898I19641J0D01*
G01*
X-939177Y718614D2*
Y718863D1*
G03X-978547Y718863I-19685J0D01*
G01*
Y718613D1*
G03X-939177Y718614I19685J0D01*
G01*
X-968455Y502799D2*
X-949755Y527980D1*
X-968656Y706053D2*
X-949955Y731235D1*
G36*
X-726575Y503067D2*
X-695078D1*
X-695079Y534544D1*
X-726575Y534543D1*
Y503067D1*
G37*
G36*
X-726578Y703172D2*
X-695082D1*
X-695083Y734356D1*
X-726579Y734355D1*
X-726578Y703172D1*
G37*
X-687503Y981247D2*
G54D10*
X-687501Y881247D1*
X-387503Y981253D2*
X-687503Y981247D1*
X-387503Y981253D2*
X-387501Y881253D1*
X-687501Y881247D1*
X509405Y623409D2*
G02X509405Y789091I-53150J82841D01*
G01*
Y623409D2*
Y789091D1*
G36*
X526334Y647195D2*
X525049Y647279D1*
X523786Y647530D1*
X522567Y647944D1*
X521413Y648514D1*
X520342Y649229D1*
X519374Y650078D1*
X518525Y651046D1*
X517810Y652116D1*
X517241Y653271D1*
X516827Y654490D1*
X516576Y655753D1*
X516491Y657037D1*
X516576Y658322D1*
X516827Y659585D1*
X517241Y660804D1*
X517810Y661959D1*
X518525Y663029D1*
X519374Y663997D1*
X520342Y664846D1*
X521413Y665561D1*
X522567Y666131D1*
X523786Y666545D1*
X525049Y666796D1*
X526334Y666880D1*
D1*
X527619Y666796D1*
X528881Y666545D1*
X530100Y666131D1*
X531255Y665561D1*
X532326Y664846D1*
X533294Y663997D1*
X534142Y663029D1*
X534858Y661959D1*
X535427Y660804D1*
X535841Y659585D1*
X536092Y658322D1*
X536176Y657037D1*
X536092Y655753D1*
X535841Y654490D1*
X535427Y653271D1*
X534858Y652116D1*
X534142Y651046D1*
X533294Y650078D1*
X532326Y649229D1*
X531255Y648514D1*
X530100Y647944D1*
X528881Y647530D1*
X527619Y647279D1*
X526334Y647195D1*
D1*
G37*
X-598427Y297589D2*
G54D10*
X-622837D1*
Y214911D1*
X-598427D1*
X-501577Y297589D2*
X-477167D1*
Y214911D1*
X-501577D1*
X-664963Y256250D2*
X-622837D1*
X-477167D2*
X-435041D1*
X-723427Y60089D2*
X-747837D1*
Y-22589D1*
X-723427D1*
X-626577Y60089D2*
X-602167D1*
Y-22589D1*
X-626577D1*
X-789963Y18750D2*
X-747837D1*
X-602167D2*
X-560041D1*
X-703839Y-592177D2*
X-703838Y-616586D1*
X-621161Y-616583D1*
X-621162Y-592174D1*
X-703842Y-495326D2*
X-703843Y-470917D1*
X-621166Y-470914D1*
X-621165Y-495323D1*
X-662498Y-658711D2*
X-662500Y-616585D1*
X-662504Y-470915D2*
X-662506Y-428789D1*
X321159Y-104675D2*
Y-129085D1*
X403837D1*
Y-104675D1*
X321159Y-7825D2*
Y16585D1*
X403837D1*
Y-7825D1*
X362498Y-171211D2*
Y-129085D1*
Y16585D2*
Y58711D1*
X-591341Y-842175D2*
Y-866585D1*
X-508663D1*
Y-842175D1*
X-591341Y-745325D2*
Y-720915D1*
X-508663D1*
Y-745325D1*
X-550002Y-908711D2*
Y-866585D1*
Y-720915D2*
Y-678789D1*
X201573Y-439911D2*
X177163D1*
Y-522589D1*
X201573D1*
X298423Y-439911D2*
X322833D1*
Y-522589D1*
X298423D1*
X135037Y-481250D2*
X177163D1*
X322833D2*
X364959D1*
X753837Y704675D2*
Y729085D1*
X671159D1*
Y704675D1*
X753837Y607825D2*
Y583415D1*
X671159D1*
Y607825D1*
X712498Y771211D2*
Y729085D1*
Y583415D2*
Y541289D1*
X-185927Y447589D2*
X-210337D1*
Y364911D1*
X-185927D1*
X-89077Y447589D2*
X-64667D1*
Y364911D1*
X-89077D1*
X-252463Y406250D2*
X-210337D1*
X-64667D2*
X-22541D1*
X266337Y104675D2*
Y129085D1*
X183659D1*
Y104675D1*
X266337Y7825D2*
Y-16585D1*
X183659D1*
Y7825D1*
X224998Y171211D2*
Y129085D1*
Y-16585D2*
Y-58711D1*
X58659Y32825D2*
Y8415D1*
X141337D1*
Y32825D1*
X58659Y129675D2*
Y154085D1*
X141337D1*
Y129675D1*
X99998Y-33711D2*
Y8415D1*
Y154085D2*
Y196211D1*
X583661Y70323D2*
X583662Y45914D1*
X666339Y45917D1*
X666338Y70326D1*
X583658Y167174D2*
X583657Y191583D1*
X666334Y191586D1*
X666335Y167177D1*
X625002Y3789D2*
X625000Y45915D1*
X624996Y191585D2*
X624994Y233711D1*
X541335Y167176D2*
Y191586D1*
X458657Y191584D1*
X458658Y167174D1*
X541338Y70326D2*
Y45916D1*
X458661Y45914D1*
Y70324D1*
X499995Y233711D2*
X499996Y191585D1*
X500000Y45915D2*
X500001Y3789D1*
X-10927Y647589D2*
X-35337D1*
Y564911D1*
X-10927D1*
X85923Y647589D2*
X110333D1*
Y564911D1*
X85923D1*
X-77463Y606250D2*
X-35337D1*
X110333D2*
X152459D1*
X-260927Y735089D2*
X-285337D1*
Y652411D1*
X-260927D1*
X-164077Y735089D2*
X-139667D1*
Y652411D1*
X-164077D1*
X-327463Y693750D2*
X-285337D1*
X-139667D2*
X-97541D1*
X-73427Y-602411D2*
X-97837D1*
Y-685089D1*
X-73427D1*
X23423Y-602411D2*
X47833D1*
Y-685089D1*
X23423D1*
X-139963Y-643750D2*
X-97837D1*
X47833D2*
X89959D1*
X-1033663Y404675D2*
Y429085D1*
X-1116341D1*
Y404675D1*
X-1033663Y307825D2*
Y283415D1*
X-1116341D1*
Y307825D1*
X-1075002Y471211D2*
Y429085D1*
Y283415D2*
Y241289D1*
X-853840Y-442176D2*
X-853839Y-466585D1*
X-771162Y-466584D1*
X-771163Y-442174D1*
X-853842Y-345326D2*
Y-320916D1*
X-771165Y-320915D1*
X-771164Y-345324D1*
X-812500Y-508711D2*
X-812501Y-466585D1*
X-812503Y-320915D2*
X-812504Y-278789D1*
X267515Y987357D2*
X267520Y735388D1*
X-117519Y735380D1*
X-117525Y987348D1*
X-87603Y987349D1*
Y972388D1*
X237594Y972395D1*
Y987356D1*
X267515Y987357D1*
X168504Y784206D2*
G02X168504Y784206I50000J0D01*
G01*
X231270Y736962D2*
X231258Y831450D1*
X205740Y736962D2*
X205747Y831450D1*
G36*
X184838Y989323D2*
X184753Y988039D1*
X184502Y986776D1*
X184088Y985557D1*
X183519Y984402D1*
X182804Y983331D1*
X181955Y982364D1*
X180987Y981515D1*
X179917Y980799D1*
X178762Y980230D1*
X177543Y979816D1*
X176280Y979565D1*
X174995Y979481D1*
X173711Y979565D1*
X172448Y979816D1*
X171229Y980230D1*
X170074Y980799D1*
X169004Y981514D1*
X168036Y982363D1*
X167187Y983331D1*
X166471Y984402D1*
X165902Y985556D1*
X165488Y986775D1*
X165237Y988038D1*
X165153Y989323D1*
D1*
X165237Y990608D1*
X165488Y991870D1*
X165902Y993089D1*
X166471Y994244D1*
X167186Y995315D1*
X168035Y996283D1*
X169003Y997132D1*
X170074Y997847D1*
X171228Y998416D1*
X172447Y998830D1*
X173710Y999081D1*
X174995Y999166D1*
X176280Y999081D1*
X177542Y998830D1*
X178761Y998416D1*
X179916Y997847D1*
X180987Y997132D1*
X181955Y996283D1*
X182804Y995315D1*
X183519Y994245D1*
X184088Y993090D1*
X184502Y991871D1*
X184753Y990608D1*
X184838Y989323D1*
D1*
G37*
X-82581Y148278D2*
G54D10*
Y206545D1*
X-342423D1*
Y148278D1*
X-82581Y-510778D2*
Y-569045D1*
X-342423D1*
Y-510778D1*
G36*
X-405809Y128593D2*
X-404524Y128508D1*
X-403262Y128257D1*
X-402043Y127843D1*
X-400888Y127274D1*
X-399817Y126559D1*
X-398849Y125710D1*
X-398001Y124742D1*
X-397285Y123671D1*
X-396716Y122517D1*
X-396302Y121297D1*
X-396051Y120035D1*
X-395967Y118750D1*
X-396051Y117465D1*
X-396302Y116203D1*
X-396716Y114983D1*
X-397285Y113829D1*
X-398001Y112758D1*
X-398849Y111790D1*
X-399817Y110941D1*
X-400888Y110226D1*
X-402043Y109657D1*
X-403262Y109243D1*
X-404524Y108992D1*
X-405809Y108907D1*
D1*
X-407094Y108992D1*
X-408357Y109243D1*
X-409576Y109657D1*
X-410730Y110226D1*
X-411801Y110941D1*
X-412769Y111790D1*
X-413618Y112758D1*
X-414333Y113829D1*
X-414902Y114983D1*
X-415316Y116203D1*
X-415567Y117465D1*
X-415652Y118750D1*
X-415567Y120035D1*
X-415316Y121297D1*
X-414902Y122517D1*
X-414333Y123671D1*
X-413618Y124742D1*
X-412769Y125710D1*
X-411801Y126559D1*
X-410730Y127274D1*
X-409576Y127843D1*
X-408357Y128257D1*
X-407094Y128508D1*
X-405809Y128593D1*
D1*
G37*
X482035Y618843D2*
G54D58*
Y568603D1*
X498782D1*
X505967Y571035D1*
X510775Y575788D1*
X513152Y580597D1*
X515528Y587726D1*
Y599720D1*
X513152Y606905D1*
X510775Y611658D1*
X505967Y616467D1*
X498782Y618843D1*
X482035D1*
X530967Y609226D2*
X535776Y611658D1*
X542961Y618788D1*
Y568603D1*
X-1169877Y629788D2*
X-1131631Y629789D1*
X-1124446Y627413D1*
X-1122069Y624981D1*
X-1119637Y620228D1*
Y615419D1*
X-1122069Y610666D1*
X-1124445Y608289D1*
X-1131630Y605857D1*
X-1136384D1*
X-1160261Y645228D2*
X-1162693Y650036D1*
X-1169823Y657221D1*
X-1119638Y657222D1*
X-524999Y808027D2*
X-525000Y846274D1*
X-522623Y853459D1*
X-520192Y855835D1*
X-515438Y858267D1*
X-510630Y858268D1*
X-505877Y855836D1*
X-503500Y853459D1*
X-501068Y846274D1*
Y841521D1*
X-542870Y820020D2*
Y817644D1*
X-545247Y812835D1*
X-547623Y810459D1*
X-552432Y808082D1*
X-561993D1*
X-566747Y810458D1*
X-569123Y812835D1*
X-571555Y817643D1*
Y822396D1*
X-569123Y827205D1*
X-564370Y834335D1*
X-540439Y858267D1*
X-573933Y858266D1*
X274764Y685253D2*
X277086Y680500D1*
X281894Y675691D1*
X286703Y673315D1*
X293888Y670883D1*
X305826D1*
X313011Y673315D1*
X317764Y675691D1*
X322572Y680500D1*
X324949Y685253D1*
Y694814D1*
X322572Y699623D1*
X317764Y704376D1*
X313011Y706753D1*
X305826Y709185D1*
X293888D1*
X286703Y706753D1*
X281894Y704376D1*
X277086Y699623D1*
X274764Y694814D1*
Y685253D1*
X315387Y692438D2*
X329758Y706753D1*
X284381Y724624D2*
X281949Y729432D1*
X274820Y736617D1*
X325004D1*
X-580465Y356722D2*
X-558965D1*
X-551780Y359154D1*
X-549348Y361531D1*
X-546972Y366284D1*
Y371093D1*
X-549348Y375846D1*
X-551780Y378278D1*
X-558965Y380654D1*
X-580465D1*
Y330414D1*
X-563718Y356722D2*
X-546972Y330414D1*
X-531533Y371037D2*
X-526724Y373469D1*
X-519539Y380599D1*
Y330414D1*
X-716215Y119222D2*
X-694715D1*
X-687530Y121654D1*
X-685098Y124031D1*
X-682722Y128784D1*
Y133593D1*
X-685098Y138346D1*
X-687530Y140778D1*
X-694715Y143154D1*
X-716215D1*
Y92914D1*
X-699468Y119222D2*
X-682722Y92914D1*
X-664851Y131161D2*
Y133537D1*
X-662474Y138346D1*
X-660097Y140722D1*
X-655289Y143099D1*
X-645727D1*
X-640974Y140722D1*
X-638598Y138346D1*
X-636166Y133537D1*
Y128784D1*
X-638598Y123976D1*
X-643351Y116846D1*
X-667282Y92914D1*
X-633789D1*
X-762973Y-584966D2*
X-762974Y-563466D1*
X-765406Y-556281D1*
X-767783Y-553850D1*
X-772536Y-551473D1*
X-777344D1*
X-782097Y-553850D1*
X-784529Y-556282D1*
X-786906Y-563467D1*
X-786905Y-584967D1*
X-736665Y-584965D1*
X-762974Y-568220D2*
X-736666Y-551472D1*
X-786851Y-531226D2*
X-786852Y-504973D1*
X-767729Y-519287D1*
Y-512102D1*
X-765352Y-507349D1*
X-762976Y-504972D1*
X-755791Y-502540D1*
X-751038D1*
X-743853Y-504972D1*
X-739044Y-509725D1*
X-736667Y-516910D1*
Y-524095D1*
X-739043Y-531224D1*
X-741475Y-533601D1*
X-746228Y-536033D1*
X262025Y-98651D2*
Y-77151D1*
X259594Y-69966D1*
X257217Y-67535D1*
X252464Y-65158D1*
X247655D1*
X242902Y-67535D1*
X240470Y-69966D1*
X238094Y-77151D1*
Y-98651D1*
X288334D1*
X262025Y-81905D2*
X288334Y-65158D1*
Y-25787D2*
X238149D1*
X271587Y-49719D1*
Y-13849D1*
X-650475Y-834963D2*
Y-813463D1*
X-652906Y-806278D1*
X-655283Y-803846D1*
X-660036Y-801470D1*
X-664845D1*
X-669598Y-803846D1*
X-672030Y-806278D1*
X-674406Y-813463D1*
Y-834963D1*
X-624166D1*
X-650475Y-818216D2*
X-624166Y-801470D1*
X-674351Y-757345D2*
Y-781222D1*
X-652851Y-783599D1*
X-655228Y-781222D1*
X-657660Y-774037D1*
Y-766907D1*
X-655228Y-759722D1*
X-650475Y-754914D1*
X-643290Y-752537D1*
X-638536D1*
X-631351Y-754914D1*
X-626543Y-759722D1*
X-624166Y-766907D1*
Y-774037D1*
X-626543Y-781222D1*
X-628975Y-783599D1*
X-633728Y-786030D1*
X210001Y-380778D2*
X231501D1*
X238686Y-378346D1*
X241118Y-375969D1*
X243494Y-371216D1*
Y-366407D1*
X241118Y-361654D1*
X238686Y-359222D1*
X231501Y-356846D1*
X210001D1*
Y-407086D1*
X226748Y-380778D2*
X243494Y-407086D1*
X287618Y-364031D2*
X285242Y-359278D1*
X278057Y-356901D1*
X273304D1*
X266119Y-359278D1*
X261310Y-366463D1*
X258933Y-378401D1*
Y-390339D1*
X261310Y-399901D1*
X266119Y-404709D1*
X273304Y-407086D1*
X275680D1*
X282810Y-404709D1*
X287618Y-399901D1*
X289995Y-392716D1*
Y-390339D1*
X287618Y-383154D1*
X282810Y-378401D1*
X275680Y-376024D1*
X273304D1*
X266119Y-378401D1*
X261310Y-383154D1*
X258933Y-390339D1*
X812970Y697463D2*
Y675963D1*
X815402Y668778D1*
X817779Y666346D1*
X822532Y663970D1*
X827340D1*
X832094Y666346D1*
X834526Y668778D1*
X836902Y675963D1*
Y697463D1*
X786662D1*
X812970Y680716D2*
X786662Y663970D1*
Y638969D2*
X836847Y615037D1*
Y648530D1*
X-178687Y506722D2*
X-157188D1*
X-150003Y509154D1*
X-147571Y511531D1*
X-145194Y516284D1*
Y521093D1*
X-147571Y525846D1*
X-150003Y528278D1*
X-157188Y530654D1*
X-178687D1*
Y480414D1*
X-161941Y506722D2*
X-145194Y480414D1*
X-117817Y530599D2*
X-124946Y528222D1*
X-127378Y523469D1*
Y518661D1*
X-124946Y513908D1*
X-120193Y511476D1*
X-110632Y509099D1*
X-103447Y506722D1*
X-98693Y501914D1*
X-96317Y497161D1*
Y489976D1*
X-98693Y485223D1*
X-101070Y482791D1*
X-108255Y480414D1*
X-117817D1*
X-124946Y482791D1*
X-127378Y485223D1*
X-129755Y489976D1*
Y497161D1*
X-127378Y501914D1*
X-122570Y506722D1*
X-115440Y509099D1*
X-105878Y511476D1*
X-101070Y513908D1*
X-98693Y518661D1*
Y523469D1*
X-101070Y528222D1*
X-108255Y530599D1*
X-117817D1*
X325470Y96275D2*
Y74775D1*
X327902Y67590D1*
X330279Y65158D1*
X335032Y62781D1*
X339840D1*
X344594Y65158D1*
X347026Y67590D1*
X349402Y74775D1*
Y96275D1*
X299162D1*
X325470Y79528D2*
X299162Y62781D1*
X332655Y16225D2*
X325470Y18657D1*
X320662Y23410D1*
X318285Y30595D1*
Y32972D1*
X320662Y40157D1*
X325470Y44910D1*
X332655Y47342D1*
X335032D1*
X342217Y44910D1*
X346970Y40157D1*
X349347Y32972D1*
Y30595D1*
X346970Y23410D1*
X342217Y18657D1*
X332655Y16225D1*
X320662D1*
X308724Y18657D1*
X301539Y23410D1*
X299162Y30595D1*
Y35349D1*
X301539Y42534D1*
X306347Y44910D1*
X-475Y26321D2*
Y47821D1*
X-2906Y55006D1*
X-5283Y57437D1*
X-10036Y59814D1*
X-14845D1*
X-19598Y57437D1*
X-22030Y55006D1*
X-24406Y47821D1*
Y26321D1*
X25834D1*
X-475Y43067D2*
X25834Y59814D1*
X-14789Y75253D2*
X-17221Y80062D1*
X-24351Y87247D1*
X25834D1*
X-24351Y117056D2*
X-21974Y109871D1*
X-14789Y105063D1*
X-2851Y102686D1*
X4334D1*
X16272Y105063D1*
X23457Y109871D1*
X25834Y117056D1*
Y121809D1*
X23457Y128994D1*
X16272Y133747D1*
X4334Y136179D1*
X-2851D1*
X-14789Y133747D1*
X-21974Y128994D1*
X-24351Y121809D1*
Y117056D1*
X-14789Y133747D2*
X16272Y105063D1*
X524527Y74567D2*
X524526Y96067D1*
X522094Y103252D1*
X519717Y105684D1*
X514964Y108060D1*
X510156D1*
X505403Y105683D1*
X502971Y103251D1*
X500594Y96066D1*
X500595Y74566D1*
X550835Y74568D1*
X524526Y91314D2*
X550834Y108061D1*
X510210Y123499D2*
X507778Y128308D1*
X500648Y135493D1*
X550833Y135494D1*
X510210Y150932D2*
X507778Y155740D1*
X500648Y162925D1*
X550832Y162927D1*
X600469Y173682D2*
X600470Y152182D1*
X602902Y144997D1*
X605278Y142565D1*
X610031Y140189D1*
X614840D1*
X619593Y142566D1*
X622025Y144998D1*
X624401Y152183D1*
Y173683D1*
X574161Y173681D1*
X600469Y156935D2*
X574162Y140188D1*
X614785Y124750D2*
X617217Y119941D1*
X624347Y112756D1*
X574162Y112755D1*
X612409Y94885D2*
X614786D1*
X619594Y92509D1*
X621971Y90132D1*
X624348Y85324D1*
Y75762D1*
X621971Y71009D1*
X619595Y68632D1*
X614787Y66200D1*
X610033D1*
X605225Y68632D1*
X598095Y73385D1*
X574163Y97316D1*
X574164Y63823D1*
X-17431Y706722D2*
X4068D1*
X11253Y709154D1*
X13685Y711531D1*
X16062Y716284D1*
Y721093D1*
X13685Y725846D1*
X11253Y728278D1*
X4068Y730654D1*
X-17431D1*
Y680414D1*
X-685Y706722D2*
X16062Y680414D1*
X31501Y721037D2*
X36310Y723469D1*
X43495Y730599D1*
Y680414D1*
X63742Y730599D2*
X89995D1*
X75681Y711476D1*
X82866D1*
X87619Y709099D1*
X89995Y706722D1*
X92427Y699537D1*
Y694784D1*
X89995Y687599D1*
X85242Y682791D1*
X78057Y680414D1*
X70872D1*
X63742Y682791D1*
X61366Y685223D1*
X58934Y689976D1*
X-268620Y794222D2*
X-247120D1*
X-239935Y796654D1*
X-237503Y799031D1*
X-235126Y803784D1*
Y808593D1*
X-237503Y813346D1*
X-239935Y815778D1*
X-247120Y818154D1*
X-268620D1*
Y767914D1*
X-251873Y794222D2*
X-235126Y767914D1*
X-219687Y808537D2*
X-214879Y810969D1*
X-207694Y818099D1*
Y767914D1*
X-168323D2*
Y818099D1*
X-192254Y784661D1*
X-156384D1*
X-79931Y-543278D2*
X-58432D1*
X-51247Y-540846D1*
X-48815Y-538469D1*
X-46438Y-533716D1*
Y-528907D1*
X-48815Y-524154D1*
X-51247Y-521722D1*
X-58432Y-519346D1*
X-79931D1*
Y-569586D1*
X-63185Y-543278D2*
X-46438Y-569586D1*
X-30999Y-528963D2*
X-26190Y-526531D1*
X-19005Y-519401D1*
Y-569586D1*
X25119Y-519401D2*
X1242D1*
X-1134Y-540901D1*
X1242Y-538524D1*
X8427Y-536092D1*
X15557D1*
X22742Y-538524D1*
X27551Y-543278D1*
X29927Y-550463D1*
Y-555216D1*
X27551Y-562401D1*
X22742Y-567209D1*
X15557Y-569586D1*
X8427D1*
X1242Y-567209D1*
X-1134Y-564777D1*
X-3566Y-560024D1*
X-974530Y409963D2*
Y388464D1*
X-972098Y381279D1*
X-969721Y378847D1*
X-964968Y376470D1*
X-960160D1*
X-955406Y378847D1*
X-952974Y381279D1*
X-950598Y388464D1*
Y409963D1*
X-1000838D1*
X-974530Y393217D2*
X-1000838Y376470D1*
X-960215Y361031D2*
X-957783Y356222D1*
X-950653Y349037D1*
X-1000838D1*
X-957783Y304913D2*
X-953030Y307290D1*
X-950653Y314475D1*
Y319228D1*
X-953030Y326413D1*
X-960215Y331221D1*
X-972153Y333598D1*
X-984091D1*
X-993653Y331221D1*
X-998461Y326413D1*
X-1000838Y319228D1*
Y316851D1*
X-998461Y309722D1*
X-993653Y304913D1*
X-986468Y302537D1*
X-984091D1*
X-976906Y304913D1*
X-972153Y309722D1*
X-969776Y316851D1*
Y319228D1*
X-972153Y326413D1*
X-976906Y331221D1*
X-984091Y333598D1*
X-912974Y-448681D2*
Y-427181D1*
X-915406Y-419996D1*
X-917783Y-417565D1*
X-922536Y-415188D1*
X-927344D1*
X-932097Y-417565D1*
X-934529Y-419997D1*
X-936906Y-427182D1*
X-936905Y-448682D1*
X-886665Y-448681D1*
X-912974Y-431935D2*
X-886666Y-415187D1*
X-927289Y-399749D2*
X-929721Y-394940D1*
X-936851Y-387756D1*
X-886666Y-387755D1*
X-886667Y-362754D2*
X-936852Y-338823D1*
X-936851Y-372316D1*
X130396Y665229D2*
X108896Y665228D1*
X101711Y662796D1*
X99279Y660420D1*
X96903Y655667D1*
Y650858D1*
X99280Y646105D1*
X101712Y643673D1*
X108897Y641297D1*
X130397D1*
X130395Y691537D1*
X113649Y665229D2*
X96902Y691536D1*
X81464Y650913D2*
X76655Y648481D1*
X69471Y641351D1*
X69469Y691536D1*
X42093Y641350D2*
X49223Y643727D1*
X51655Y648480D1*
X51654Y653289D1*
X49222Y658042D1*
X44469Y660474D1*
X34908Y662850D1*
X27722Y665227D1*
X22969Y670035D1*
X20592Y674788D1*
Y681973D1*
X22969Y686726D1*
X25345Y689158D1*
X32530Y691535D1*
X42092D1*
X49222Y689159D1*
X51654Y686727D1*
X54030Y681974D1*
X54031Y674789D1*
X51654Y670036D1*
X46846Y665227D1*
X39716Y662850D1*
X30154Y660473D1*
X25346Y658042D1*
X22970Y653288D1*
Y648480D1*
X25346Y643727D1*
X32531Y641350D1*
X42093D1*
X82020Y-150787D2*
X46150D1*
X38965Y-153164D1*
X34212Y-157972D1*
X31780Y-165157D1*
Y-169910D1*
X34212Y-177095D1*
X38965Y-181904D1*
X46150Y-184280D1*
X82020D1*
X72403Y-199720D2*
X74835Y-204528D1*
X81965Y-211713D1*
X31780D1*
M02*
