M48
INCH
T01C0.03
T02C0.0335
T03C0.0335
T04C0.035
T05C0.0354
T06C0.0354
T07C0.0551
%
T01
X-004775Y+009313
X-005975Y+009312
T02
X+004660Y+007062
X+004660Y+008062
T03
X+004660Y+006062
T04
X+004625Y+004562
X+005625Y+004562
X+007125Y+004962
X+006250Y+002787
X+005000Y+002787
X+003625Y+001037
X+002250Y+002162
X+001000Y+002412
X+000225Y+004062
X-001225Y+006062
X-000525Y+006937
X+001975Y+006062
X-002975Y+004062
X-003900Y+002562
X-003688Y+001187
X-003688Y+000187
X-003688Y-000813
X-003688Y-001813
X-003688Y-002813
X-003688Y-003813
X-003688Y-004813
X-005500Y-006338
X-006625Y-007037
X-008125Y-005537
X-006625Y-003838
X-008125Y-002338
X-008350Y+000187
X-007100Y+002562
X-005150Y+000187
X-000562Y+000187
X-000562Y+001187
X-000562Y-000813
X-000562Y-001813
X-000562Y-002813
X-000562Y-003813
X-000562Y-004813
X+000900Y-004813
X+001350Y-006438
X+004100Y-004813
X+003625Y-002163
X+002250Y-001038
X+001000Y-000788
X+005000Y-000412
X+006250Y-000412
X+007125Y+008162
X-003725Y+006937
X-010750Y+005162
X-010750Y+001962
X-001850Y-006438
X-005500Y-009538
T05
X+001750Y+009063
T06
X+000750Y+009062
X-000250Y+009062
T07
X-008250Y+005188
X-008250Y+007187
T00
M30
