G04 DipTrace 5.0.0.0*
G04 UstundagBottom.gbr*
%MOIN*%
G04 #@! TF.FileFunction,Copper,L2,Bot*
G04 #@! TF.Part,Single*
G04 #@! TA.AperFunction,Conductor*
%ADD13C,0.02*%
G04 #@! TA.AperFunction,ComponentPad*
%ADD14R,0.07X0.07*%
%ADD15C,0.07*%
%ADD16R,0.12X0.12*%
%ADD17C,0.12*%
%ADD18R,0.09X0.09*%
%ADD19C,0.09*%
%ADD20R,0.12X0.07*%
%ADD21O,0.12X0.06*%
%ADD22R,0.08X0.09*%
%ADD23O,0.08X0.09*%
%ADD24R,0.12X0.08*%
%ADD25O,0.13X0.08*%
%FSLAX26Y26*%
G04*
G70*
G90*
G75*
G01*
G04 Bottom*
%LPD*%
X-812499Y-553750D2*
G54D13*
Y-768753D1*
X-800002Y-781250D1*
X-637502D1*
X-112502D1*
X-100002Y-768750D1*
Y-593750D1*
X-162502Y-531250D1*
Y-181250D1*
X-56203D1*
X224998Y-103750D2*
Y-181250D1*
X-56203D1*
X465998Y806250D2*
Y906252D1*
X174997D1*
X465998Y806250D2*
X612498D1*
X812498Y606250D1*
Y-1018750D1*
X787498Y-1043750D1*
X-637502D1*
Y-781250D1*
X-597502Y931249D2*
X-1212502D1*
Y-556250D1*
X-1187502D1*
X-1185002Y-553750D1*
X-812499D1*
X-825000Y518750D2*
X-800002D1*
Y168750D1*
X-600002D1*
Y-43750D1*
X-562502Y-81250D1*
X-368801D1*
X-515002Y18750D2*
X-368801D1*
X-710002Y256250D2*
X-517502D1*
X-515002Y253750D1*
Y18750D1*
X-662507Y-383750D2*
X-371301D1*
X-368801Y-381250D1*
X-835002Y18750D2*
X-1037502D1*
Y-341323D1*
X-995076Y-383750D1*
X-662507D1*
X-550002Y-633750D2*
X-521301D1*
X-368801Y-481250D1*
X-662497Y-703750D2*
X-560002D1*
X-550002Y-693750D1*
Y-633750D1*
X-1075002Y516250D2*
Y718750D1*
X-825004D1*
X-812505Y-233750D2*
X-610002D1*
X-562502Y-281250D1*
X-368801D1*
X-825004Y718750D2*
X-712502D1*
Y356250D1*
X-375002D1*
X-337502Y318750D1*
X-200002D1*
X-162502Y356250D1*
Y456250D1*
X-87502Y531250D1*
X137498D1*
X449998Y218750D1*
Y68750D1*
X368748Y-12500D1*
X224998Y131250D1*
X79924D1*
X24998Y186177D1*
Y206250D1*
X-225002D1*
X-237502Y193750D1*
Y-43750D1*
X-262502Y-68750D1*
Y-213823D1*
X-329929Y-281250D1*
X-368801D1*
X-390002Y256250D2*
Y139951D1*
X-368801Y118750D1*
X362498Y103750D2*
Y243750D1*
X124998Y481250D1*
X-57576D1*
X-100002Y438823D1*
Y256250D1*
X-390002D1*
X712498Y816250D2*
Y981250D1*
X74997D1*
Y906250D1*
X362498Y-216250D2*
Y-256250D1*
X-31203D1*
X-56203Y-281250D1*
X712498Y496250D2*
X762498D1*
Y-136323D1*
X682571Y-216250D1*
X362498D1*
X-550002Y-953750D2*
Y-956250D1*
X737498D1*
Y-381250D1*
X409998D1*
X-56203D1*
X409998Y-481250D2*
Y-381250D1*
X89998Y-481250D2*
X-56203D1*
X134998Y-643750D2*
Y-496250D1*
X119998Y-481250D1*
X89998D1*
X-185002Y-643750D2*
X-212502D1*
Y-106250D1*
X-87502Y18750D1*
X-56203D1*
X224998Y216250D2*
X99998D1*
Y241250D1*
X22498Y406250D2*
X74998D1*
X99998Y381250D1*
Y241250D1*
Y-78750D2*
X-53703D1*
X-56203Y-81250D1*
X624993Y278750D2*
Y261329D1*
X712498Y173823D1*
Y-76323D1*
X657571Y-131250D1*
X362498D1*
X212498Y18750D1*
X142424D1*
X99998Y-23677D1*
Y-78750D1*
X500002Y-41250D2*
X625003D1*
X500002D2*
X464995D1*
X437494Y-68751D1*
X362499D1*
X212498Y81250D1*
X37498D1*
X-2Y118750D1*
X-56203D1*
X465998Y706250D2*
X624998D1*
X637498Y693750D1*
Y406250D1*
X509998Y278750D1*
X499994D1*
X465998Y606250D2*
Y459750D1*
X462498Y456250D1*
X-52502Y693750D2*
X362498D1*
X449998Y606250D1*
X465998D1*
X562498Y456250D2*
Y393750D1*
X549998Y381250D1*
X412498D1*
X362498Y431250D1*
Y568750D1*
X234998D1*
X197498Y606250D1*
X-1075002Y196250D2*
Y118750D1*
X-1062502Y106250D1*
X-725002D1*
X-662502Y43750D1*
Y-86177D1*
X-567429Y-181250D1*
X-368801D1*
X-297502Y406250D2*
Y606250D1*
Y693750D1*
Y761323D1*
X-342429Y806250D1*
X-477502D1*
Y818750D1*
X-1095076D1*
X-1150002Y763823D1*
Y271250D1*
X-1075002Y196250D1*
X-25003Y906248D2*
X-342429D1*
Y806250D1*
X-122502Y606250D2*
X-297502D1*
X-372502Y693750D2*
X-297502D1*
X-477502Y931251D2*
Y818750D1*
G54D14*
X462498Y456250D3*
G54D15*
X562498D3*
G54D16*
X-825000Y518750D3*
G54D17*
X-825004Y718750D3*
G54D18*
X-477502Y931251D3*
G54D19*
X-597502Y931249D3*
G54D20*
X465998Y606250D3*
G54D21*
Y706250D3*
Y806250D3*
G54D19*
X-710002Y256250D3*
X-390002D3*
X-835002Y18750D3*
X-515002D3*
X-662497Y-703750D3*
X-662507Y-383750D3*
X362498Y-216250D3*
Y103750D3*
X-550002Y-953750D3*
Y-633750D3*
X89998Y-481250D3*
X409998D3*
X712498Y816250D3*
Y496250D3*
X-297502Y406250D3*
X22498D3*
X224998Y216250D3*
Y-103750D3*
X99998Y-78750D3*
Y241250D3*
X625003Y-41250D3*
X624993Y278750D3*
X499994D3*
X500002Y-41250D3*
X-122502Y606250D3*
X197498D3*
X-372502Y693750D3*
X-52502D3*
X-185002Y-643750D3*
X134998D3*
X-1075002Y516250D3*
Y196250D3*
X-812499Y-553750D3*
X-812505Y-233750D3*
G54D22*
X174997Y906252D3*
G54D23*
X74997Y906250D3*
X-25003Y906248D3*
G54D24*
X-368801Y118750D3*
G54D25*
Y18750D3*
Y-81250D3*
Y-181250D3*
Y-281250D3*
Y-381250D3*
Y-481250D3*
X-56203D3*
Y-381250D3*
Y-281250D3*
Y-181250D3*
Y-81250D3*
Y18750D3*
Y118750D3*
M02*
